# xmcd
#
# Track frame offsets:
#	150
#	8969
#	20897
#	30152
#	40601
#	52848
#	63552
#	74993
#	86964
#	98287
#	109835
#	120554
#	131442
#	143028
#	154744
#	166782
#	177392
#	187010
#	196777
#	210343
#	222793
#	234386
#	246312
#	255497
#	265011
#	274730
#
# Disc length: 3803 seconds
#
# Revision: 1
# Processed by: cddbd v1.5.2PL0 Copyright (c) Steve Scherf et al.
# Submitted via: audiograbber 1.83.01
#
DISCID=660ed91a
DTITLE=Eddy Arnold - Complete US Chart Singles 1945-1962 - Disc 3
DYEAR=2014
DGENRE=Pop-Country
TTITLE0=Hep Cat Baby (RCA 20-5805) 1954
TTITLE1=This Is The Thanks I Get (For Loving You) (RCA 20-5805) 1954
TTITLE2=I've Been Thinking (20-6000) 1955
TTITLE3=Don't Forget (RCA 20-6000) 1955
TTITLE4=In Time (RCA 20-6069) 1955
TTITLE5=Two Kinds Of Love (RCA 20-6069) 1955
TTITLE6=Cattle Call (RCA 20-6139) 1955
TTITLE7=The Kentuckian Song (RCA 20-6139) 1955
TTITLE8=That Do Make It Nice (RCA 20-6198) 1955
TTITLE9=Just Call Me Loesome (RCA 20-6198) 1955
TTITLE10=The Richest Man In The World (RCA 20-6290) 1955
TTITLE11=I Walked Alone Last Night (RCA 20-6290) 1955
TTITLE12=Trouble In Mind (RCA 20-6365) 1955
TTITLE13=You Don't Know Me (RCA 20-6502) 1956
TTITLE14=Casey Jones (The Brave Engineer) (RCA 20-6601) 1956
TTITLE15=I Wouldn't Know Where To Begin (RCA 20-6699) 1956
TTITLE16=Gonna Find Me A Bluebird (RCA 20-6905) 1957
TTITLE17=Chip Off The Old Block (RCA 47-7435) 1959
TTITLE18=Tennessee Stud (RCA 47-7542) 1959
TTITLE19=Before This Day Ends (RCA 47-7794) 1960
TTITLE20=(Jim) Wore A Tie Today (RCA 47-7861) 1961
TTITLE21=One Grain Of Sand (RCA 47-7926) 1961
TTITLE22=Tears Broke Out On Me (RCA 47-7984) 1962
TTITLE23=A Little Heartache (RCA 47-8048) 1962
TTITLE24=After Loving You (RCA 47-8048) 1962
TTITLE25=Does He Mean That Much To You (RCA 47-8102) 1962
EXTD=Disc 3 of 3
EXTT0=
EXTT1=
EXTT2=
EXTT3=
EXTT4=
EXTT5=
EXTT6=
EXTT7=
EXTT8=
EXTT9=
EXTT10=
EXTT11=
EXTT12=
EXTT13=
EXTT14=
EXTT15=
EXTT16=
EXTT17=
EXTT18=
EXTT19=
EXTT20=
EXTT21=
EXTT22=
EXTT23=
EXTT24=
EXTT25=
PLAYORDER=
